<svg xmlns="http://www.w3.org/2000/svg" x="0px" y="0px"
width="20" height="20"
viewBox="0 0 172 172"
style=" fill:#000000;"><g fill="none" fill-rule="nonzero" stroke="none" stroke-width="1" stroke-linecap="butt" stroke-linejoin="miter" stroke-miterlimit="10" stroke-dasharray="" stroke-dashoffset="0" font-family="none" font-weight="none" font-size="none" text-anchor="none" style="mix-blend-mode: normal"><path d="M0,172v-172h172v172z" fill="none"></path><g><path d="M86,163.4c-42.42667,0 -77.4,-34.97333 -77.4,-77.4c0,-42.42667 34.97333,-77.4 77.4,-77.4c42.42667,0 77.4,34.97333 77.4,77.4c0,42.42667 -34.97333,77.4 -77.4,77.4z" fill="#2ecc71"></path><path d="M86,11.46667c41.28,0 74.53333,33.25333 74.53333,74.53333c0,41.28 -33.25333,74.53333 -74.53333,74.53333c-41.28,0 -74.53333,-33.25333 -74.53333,-74.53333c0,-41.28 33.25333,-74.53333 74.53333,-74.53333M86,5.73333c-44.14667,0 -80.26667,36.12 -80.26667,80.26667c0,44.14667 36.12,80.26667 80.26667,80.26667c44.14667,0 80.26667,-36.12 80.26667,-80.26667c0,-44.14667 -36.12,-80.26667 -80.26667,-80.26667z" fill="#5e9c76"></path><path d="M74.53333,116.96l-26.94667,-26.94667l8.02667,-8.02667l18.92,18.92l47.58667,-47.58667l8.02667,8.02667z" fill="#ffffff"></path></g></g></svg>